<svg xmlns="http://www.w3.org/2000/svg" xmlns:xlink="http://www.w3.org/1999/xlink" viewBox="0 0 256 256"><defs><linearGradient id="c" x1="-88.511" x2="-.398" y1="462.614" y2="325.457" data-name="Degradado sin nombre" gradientTransform="matrix(1 0 0 -1 178 524)" gradientUnits="userSpaceOnUse"><stop offset="0" stop-color="#222"/><stop offset="1" stop-color="#3f43ef"/></linearGradient><linearGradient id="a" x1="-67.906" x2="-58.344" y1="346.681" y2="346.681" data-name="Degradado sin nombre 2" gradientTransform="matrix(1.012 0 0 -1.012 138.546 402.14)" gradientUnits="userSpaceOnUse"><stop offset="0" stop-color="#0e0e0e"/><stop offset="1" stop-color="#8b8b8b"/></linearGradient><linearGradient id="b" x1="-50.881" x2="-40.032" y1="335.245" y2="344.336" data-name="Degradado sin nombre 3" gradientTransform="matrix(1.132 -.073 -.074 -1.12 140.081 436.037)" gradientUnits="userSpaceOnUse"><stop offset="0" stop-color="#0e0e0e"/><stop offset=".765" stop-color="#c7c7c7"/><stop offset="1" stop-color="#151515"/></linearGradient><linearGradient xlink:href="#a" id="d" x1="-64.1" x2="-33.368" y1="329.681" y2="329.681" data-name="Degradado sin nombre 4" gradientTransform="matrix(1.012 0 0 -1.012 110.21 402.14)"/><linearGradient xlink:href="#b" id="e" x1="-64.1" x2="-33.368" y1="329.681" y2="329.681" data-name="Degradado sin nombre 5" gradientTransform="matrix(1.012 0 0 -1.012 111.232 402.651)"/><linearGradient xlink:href="#a" id="f" x1="-64.1" x2="-33.368" y1="329.681" y2="329.681" data-name="Degradado sin nombre 6" gradientTransform="matrix(1.012 0 0 -1.012 112.234 404.164)"/><linearGradient xlink:href="#b" id="g" x1="-64.1" x2="-33.368" y1="329.681" y2="329.681" data-name="Degradado sin nombre 7" gradientTransform="matrix(1.012 0 0 -1.012 113.256 404.675)"/><linearGradient xlink:href="#a" id="h" x1="-64.1" x2="-33.368" y1="329.681" y2="329.681" data-name="Degradado sin nombre 8" gradientTransform="matrix(1.012 0 0 -1.012 108.186 400.116)"/><linearGradient xlink:href="#b" id="i" x1="-64.1" x2="-33.368" y1="329.681" y2="329.681" data-name="Degradado sin nombre 9" gradientTransform="matrix(1.012 0 0 -1.012 109.208 400.627)"/><linearGradient xlink:href="#a" id="j" x1="-96.767" x2="-37.935" y1="305.194" y2="347.62" data-name="Degradado sin nombre 10" gradientTransform="matrix(1.012 0 0 -1.052 155.19 423.557)"/><linearGradient xlink:href="#a" id="k" x1="-96.767" x2="-37.935" y1="305.194" y2="347.62" data-name="Degradado sin nombre 11" gradientTransform="matrix(1.012 0 0 -1.052 155.701 424.324)"/><linearGradient xlink:href="#a" id="l" x1="-67.906" x2="-58.344" y1="346.681" y2="346.681" data-name="Degradado sin nombre 12" gradientTransform="matrix(1.012 0 0 -1.012 110.21 402.14)"/><linearGradient id="m" x1="-91.409" x2="-64.912" y1="317.154" y2="310.025" data-name="Degradado sin nombre 13" gradientTransform="matrix(.73 -1.158 -1.086 -.224 479.366 74.079)" gradientUnits="userSpaceOnUse"><stop offset="0" stop-color="#525252"/><stop offset="1" stop-color="#e8e8e8"/></linearGradient><linearGradient id="n" x1="35.835" x2="481.281" y1="415.298" y2="-362.742" data-name="Degradado sin nombre 14" gradientTransform="matrix(.292 0 0 -.166 39.275 166.323)" gradientUnits="userSpaceOnUse"><stop offset="0" stop-color="#ff0"/><stop offset=".1" stop-color="#2d8e61" stop-opacity=".906"/><stop offset=".229" stop-color="#3f1ec2" stop-opacity=".816"/><stop offset=".511" stop-color="#7f1486" stop-opacity=".636"/><stop offset="1" stop-color="#fff" stop-opacity="0"/></linearGradient></defs><path d="M43.575 24a15.74 15.74 0 0 0-15.723 15.723v192.969a15.741 15.741 0 0 0 15.723 15.724h192.969a15.742 15.742 0 0 0 15.724-15.724V39.723A15.741 15.741 0 0 0 236.544 24H43.575Z" opacity=".2" style="isolation:isolate"/><path fill="#5a008c" d="M242.268 225.692a12.725 12.725 0 0 1-12.724 12.724H36.575a12.724 12.724 0 0 1-12.723-12.724V32.723A12.723 12.723 0 0 1 36.575 20h192.969a12.724 12.724 0 0 1 12.724 12.723v192.969Z"/><path fill="url(#c)" d="M36.575 25.3a7.431 7.431 0 0 0-7.422 7.422v192.97a7.43 7.43 0 0 0 7.422 7.422h192.969a7.43 7.43 0 0 0 7.422-7.422V32.723a7.43 7.43 0 0 0-7.422-7.422H36.575Z"/><path fill="none" d="M256 256H0V0h256v256Z"/><path fill="url(#a)" stroke="#0a0a0a" stroke-linecap="round" stroke-linejoin="round" stroke-width=".651" d="M69.825 24.789v45.224h.127a10.265 10.265 0 0 0 2.214 5.155c2.229 2.782 5.149 3.471 6.546 1.55a4.437 4.437 0 0 0 .727-2.657h.061V24.789h-9.675Z"/><path fill="#b6b6b6" d="M80.486 74.134c-.6.83-1.874.529-2.837-.673S76.394 70.61 77 69.78s1.874-.529 2.837.673 1.253 2.847.649 3.681Z" opacity=".579" style="isolation:isolate"/><path fill="#232323" stroke="#000" stroke-linecap="round" stroke-linejoin="round" stroke-width="2" d="M34.346 67.479c-1.111-4.891-1.371-8.267.411-12.4a25.444 25.444 0 0 1 9.833-11.066c4.243-2.751 7.081-5.391 12.173-4.7 5.335.725 5.336 1.3 8.882 4.918C68.851 47.5 72.7 53.629 75.3 56.5l15.27 14.554c-3.1-.269-16.013 3.167-19.818 5.38-7.443 8.365-9.5 9.729-12.4 17.52-8.6-9.082-23.588-23.53-24.009-26.478h0Z"/><path fill="url(#b)" d="m53.64 40.435 31.341 30.921c-6.369 1.484-10.854 2.844-14.225 5.432L42.5 45.7c1.691-.8 4.379-3.368 5.477-4.047s2.052-.583 3.376-1.071c1.045-.385.923-.06 2.288-.148Z" opacity=".8" style="isolation:isolate"/><path fill="none" stroke="url(#d)" d="M45.846 80.769c.018-9.412 4.618-14.408 7.275-16.627 5.852-4.887 15.637-9.184 22.814-6.653" opacity=".579" style="isolation:isolate"/><path fill="none" stroke="url(#e)" d="M46.869 81.28c.018-9.412 4.618-14.408 7.275-16.627C59.995 59.766 69.78 55.469 76.958 58"/><path fill="none" stroke="url(#f)" d="M47.87 82.793c.018-9.412 4.618-14.408 7.275-16.627 5.855-4.887 15.637-9.184 22.814-6.654" opacity=".579" style="isolation:isolate"/><path fill="none" stroke="url(#g)" d="M48.893 83.3c.018-9.412 4.618-14.408 7.275-16.627 5.852-4.887 15.637-9.184 22.814-6.653"/><path fill="none" stroke="url(#h)" d="M43.822 78.745c.018-9.412 4.618-14.408 7.278-16.627 5.852-4.887 15.637-9.184 22.814-6.653" opacity=".579" style="isolation:isolate"/><path fill="none" stroke="url(#i)" d="M44.845 79.256c.018-9.412 4.618-14.408 7.275-16.627 5.852-4.887 15.637-9.184 22.814-6.653"/><path fill="none" stroke="#000" stroke-linecap="round" stroke-linejoin="round" stroke-width="2" d="M34.346 67.479c-1.111-4.891-1.371-8.267.411-12.4a25.444 25.444 0 0 1 9.833-11.066c4.243-2.751 7.081-5.391 12.173-4.7 5.335.725 5.336 1.3 8.882 4.918C68.851 47.5 72.7 53.629 75.3 56.5l15.27 14.554c-3.1-.269-16.013 3.167-19.818 5.38-7.443 8.365-9.5 9.729-12.4 17.52-8.6-9.082-23.588-23.53-24.009-26.478h0Z"/><path fill="url(#j)" stroke="#d4d4d4" stroke-linecap="round" stroke-linejoin="round" stroke-width="2" d="m59.647 71.391 47.28-8.768-13.8 42.245L48.4 116.293Z"/><path fill="url(#k)" stroke="#000" stroke-linecap="round" stroke-linejoin="round" stroke-width="2" d="m60.158 72.158 47.28-8.768-13.8 42.245-44.725 11.425 11.245-44.9h0Z"/><path fill="#ababab" d="M87.579 73.823c7.042 1.452 8.254 9.762 2.708 18.561s-15.751 14.754-22.793 13.3-8.254-9.762-2.708-18.561 15.752-14.752 22.793-13.3Z"/><path fill="url(#l)" stroke="#0a0a0a" stroke-linecap="round" stroke-linejoin="round" stroke-width=".651" d="M41.489 24.789v45.224h.127a10.265 10.265 0 0 0 2.214 5.155c2.229 2.782 5.149 3.471 6.546 1.55a4.437 4.437 0 0 0 .727-2.657h.063V24.789h-9.677Z"/><path fill="#b6b6b6" d="M48.1 74.134c-.6.83-1.874.529-2.837-.673s-1.255-2.85-.651-3.68 1.874-.529 2.837.673 1.257 2.846.651 3.68Z" opacity=".579" style="isolation:isolate"/><path fill="#ababab" stroke="url(#m)" stroke-linecap="round" stroke-linejoin="round" stroke-width="1.486" d="M91.6 75.944c4.474 4.62 1.805 14.549-5.962 22.176-5.37 5.274-12.033 8.268-17.172 7.717" opacity=".867" style="isolation:isolate"/><path fill="url(#n)" d="M150.4 231.9c26.156-.142 85.156-11.552 85.407-33.888.08-7.128-3.619-11.005-6.634-13.608C204.464 163.074 134.939 112.616 87 78.048c-6.586-4.748-22 9.435-21.649 17.731.984 22.99.83 69.513 1.185 101.288.316 28.274 57.711 34.978 83.866 34.836Z"/><g fill="#fff"><path d="M163.842 84.1a6.318 6.318 0 0 0 1.956-.274 1.558 1.558 0 0 0 1.135-1.436 1.257 1.257 0 0 0-1.423-1.149 3.7 3.7 0 0 0-3.5 3.734 2.156 2.156 0 0 0 2.065 2.435 3.624 3.624 0 0 0 3.037-1.628.161.161 0 0 0-.137-.15.289.289 0 0 0-.178.137 3.5 3.5 0 0 1-2.695 1.368c-.78 0-1.19-.616-1.19-1.628a5.6 5.6 0 0 1 .205-1.409h.725Zm-.657-.274c.588-2.106 1.888-2.312 2.325-2.312a.9.9 0 0 1 1.012.875c0 1.436-2.189 1.436-2.763 1.436h-.574ZM170.8 80a.105.105 0 0 0-.114-.1c-.1 0-.114.034-.171.228-.3 1.038-.764 1.391-1.14 1.391-.137 0-.3-.034-.3-.376a3.133 3.133 0 0 1 .262-.992l.8-2.121a1.491 1.491 0 0 0 .114-.513.883.883 0 0 0-.9-.912c-1.049 0-1.471 1.653-1.471 1.745a.116.116 0 0 0 .125.1c.1 0 .114-.046.16-.205.274-.958.707-1.414 1.152-1.414.1 0 .3.011.3.376a3.06 3.06 0 0 1-.239.924l-.8 2.121a1.608 1.608 0 0 0-.137.57.88.88 0 0 0 .9.924c1.053-.005 1.459-1.67 1.459-1.746Zm-.091-5.485a.381.381 0 0 0-.388-.376.59.59 0 0 0-.559.547.368.368 0 0 0 .376.376.6.6 0 0 0 .575-.55ZM174.325 77.328h1.288a12.737 12.737 0 0 0-.5 3.022c0 .16 0 1.391.467 1.391a.457.457 0 0 0 .445-.41.487.487 0 0 0-.08-.251 5.718 5.718 0 0 1-.308-1.847 8.9 8.9 0 0 1 .239-1.9h1.277a.424.424 0 0 0 .525-.365c0-.251-.217-.251-.422-.251H173.5a1.415 1.415 0 0 0-1.174.559 4.421 4.421 0 0 0-.661 1 .1.1 0 0 0 .125.091.169.169 0 0 0 .148-.1 1.592 1.592 0 0 1 1.471-.935h.65a23.055 23.055 0 0 1-1.471 3.843.492.492 0 0 0-.091.274.291.291 0 0 0 .308.3c.331 0 .422-.3.559-.775.182-.582.182-.6.3-1.06ZM186.6 84.1h3.625c.191 0 .424 0 .424-.233s-.219-.246-.424-.246H186.6V80c0-.191 0-.424-.233-.424s-.246.219-.246.424v3.625H182.5c-.191 0-.424 0-.424.233s.219.246.424.246h3.625v3.625c0 .191 0 .424.233.424s.246-.219.246-.424V84.1ZM197.931 78.534c0-.287-.014-.3-.205-.3a2.761 2.761 0 0 1-2.106.875.166.166 0 0 0-.123.027 1.109 1.109 0 0 0-.014.342 3.48 3.48 0 0 0 1.682-.41v7.209c0 .479-.027.643-1.2.643h-.41v.356c.657-.014 1.34-.027 2-.027s1.34.014 2 .027v-.357h-.41c-1.176 0-1.2-.15-1.2-.643v-7.742ZM213.137 82.884c.205 0 .41 0 .41-.233s-.233-.246-.465-.246h-7.646c-.233 0-.465 0-.465.246s.205.233.41.233h7.756Zm-.055 2.435c.233 0 .465 0 .465-.246s-.205-.233-.41-.233h-7.756c-.205 0-.41 0-.41.233s.233.246.465.246h7.646ZM223.7 82.884a7.461 7.461 0 0 0-.588-3.351 2.221 2.221 0 0 0-4.035-.014 7.237 7.237 0 0 0-.6 3.365 8.088 8.088 0 0 0 .438 3.009 2.268 2.268 0 0 0 4.322.041 7.745 7.745 0 0 0 .463-3.05Zm-2.613 4.391c-.875 0-1.4-.752-1.587-1.792a17.1 17.1 0 0 1-.15-2.749 13.338 13.338 0 0 1 .178-2.763 1.681 1.681 0 0 1 1.559-1.518 1.658 1.658 0 0 1 1.546 1.491 13.06 13.06 0 0 1 .191 2.79 15.466 15.466 0 0 1-.164 2.79c-.291 1.491-1.098 1.751-1.577 1.751Z"/></g><g fill="#fff"><path d="M150.951 53.928a.115.115 0 0 0-.125-.112c-.112 0-.125.037-.187.25-.324 1.135-.836 1.522-1.247 1.522-.15 0-.324-.037-.324-.412a3.428 3.428 0 0 1 .287-1.085l.873-2.32a1.631 1.631 0 0 0 .125-.561.967.967 0 0 0-.986-1c-1.148 0-1.609 1.809-1.609 1.909a.127.127 0 0 0 .137.112c.112 0 .125-.05.175-.225.3-1.048.773-1.547 1.26-1.547.112 0 .324.012.324.412a3.348 3.348 0 0 1-.262 1.01l-.873 2.32a1.76 1.76 0 0 0-.15.624.963.963 0 0 0 .986 1.01c1.145.002 1.596-1.819 1.596-1.907Zm-.1-6a.417.417 0 0 0-.424-.412.645.645 0 0 0-.611.6.4.4 0 0 0 .412.412.658.658 0 0 0 .624-.6ZM163.458 51.67c.175 0 .4 0 .4-.225s-.212-.237-.4-.237h-7.348c-.175 0-.4 0-.4.225s.212.237.4.237h7.348Zm0 2.32c.175 0 .4 0 .4-.225s-.212-.237-.4-.237h-7.348c-.175 0-.4 0-.4.225s.212.237.4.237h7.348ZM172.821 55.97l-2.2-4.853c-.087-.2-.15-.2-.187-.2a.382.382 0 0 0-.212.1l-1.185.9a.256.256 0 0 0-.162.2.127.127 0 0 0 .125.137 1.672 1.672 0 0 0 .424-.274c.075-.062.262-.2.4-.3l2.458 5.4a.233.233 0 0 0 .262.2.3.3 0 0 0 .312-.249l5.666-11.731a.552.552 0 0 0 .087-.249.25.25 0 0 0-.25-.25.35.35 0 0 0-.287.262Z"/><path d="M178.364 44.804h15.81v.499h-15.81zM186.585 52.843c.212 0 .437 0 .437-.249s-.225-.25-.437-.25h-6.749c-.212 0-.437 0-.437.25s.225.249.437.249h6.749ZM191.623 47.716c0-.287 0-.3-.249-.3a2.768 2.768 0 0 1-2.208.8v.362a3.6 3.6 0 0 0 1.6-.324v6.5c0 .449-.037.6-1.135.6h-.391v.362c.337-.025 1.547-.025 1.959-.025s1.609 0 1.946.025v-.366h-.387c-1.1 0-1.135-.15-1.135-.6v-7.034Z"/></g><g fill="#ffe601" style="isolation:isolate"><path d="m124.608 136.56.7 14.907h-1.778a18.037 18.037 0 0 0-1.406-5.626 9.423 9.423 0 0 0-3.867-4.008 13.491 13.491 0 0 0-6.352-1.289h-8.954v48.565q0 5.861 1.266 7.313 1.781 1.969 5.484 1.969h2.2v1.734H84.949v-1.734H87.2q4.031 0 5.719-2.437 1.031-1.5 1.031-6.845v-48.565h-7.641a21.307 21.307 0 0 0-6.329.656 8.686 8.686 0 0 0-4.172 3.422 13.848 13.848 0 0 0-2.062 6.845h-1.782l.75-14.907h51.894Z"/><path d="M132.789 168.475V193.6h13.969q5.438 0 7.268-1.641 2.435-2.156 2.719-7.595h1.734v22.127h-1.734a24.287 24.287 0 0 0-1.312-5.954 5.868 5.868 0 0 0-2.766-2.578 14.137 14.137 0 0 0-5.908-.937h-13.97v20.954a19.472 19.472 0 0 0 .375 5.134 2.948 2.948 0 0 0 1.313 1.453 7.971 7.971 0 0 0 3.563.539h10.78a29.226 29.226 0 0 0 7.83-.75 11.675 11.675 0 0 0 4.688-2.953 36.059 36.059 0 0 0 5.953-8.767h1.875l-5.484 15.938h-48.988v-1.734h2.25a8.917 8.917 0 0 0 4.266-1.078 3.943 3.943 0 0 0 2.039-2.25 22.089 22.089 0 0 0 .539-6.142v-41.3q0-6.047-1.219-7.453-1.687-1.875-5.625-1.875h-2.25v-1.734h48.988l.7 13.923h-1.828a21.981 21.981 0 0 0-2.18-6.892 7.491 7.491 0 0 0-3.539-2.859 21.241 21.241 0 0 0-6.609-.7h-17.437ZM207.488 164.921l13.642 20.345q5.67 8.438 8.414 10.665a11.768 11.768 0 0 0 6.962 2.461v1.734h-27.283v-1.734a12.334 12.334 0 0 0 4.031-.562 3.84 3.84 0 0 0 1.617-1.289 2.961 2.961 0 0 0 .633-1.758 5.888 5.888 0 0 0-.422-2.157 36.945 36.945 0 0 0-2.582-4.126l-10.782-16.313-13.31 17.063a25.7 25.7 0 0 0-2.531 3.634 4.481 4.481 0 0 0-.422 1.9 3.023 3.023 0 0 0 1.266 2.484q1.266.984 4.829 1.125v1.734H169v-1.734a13.783 13.783 0 0 0 4.125-.984 23.923 23.923 0 0 0 5.532-3.281 38.656 38.656 0 0 0 6-6.329l15-18.938-12.517-18.329q-5.109-7.455-8.672-9.774a15.594 15.594 0 0 0-8.2-2.461v-1.737h29.393v1.734q-3.751.141-5.133 1.219a3.044 3.044 0 0 0-1.383 2.391q0 1.734 2.25 5.063l9.75 14.579 11.3-14.3a24.508 24.508 0 0 0 2.414-3.469 4.434 4.434 0 0 0 .445-1.922 2.812 2.812 0 0 0-.562-1.734 3.756 3.756 0 0 0-1.781-1.383 16.3 16.3 0 0 0-4.453-.445v-1.733h22.548v1.734a13.3 13.3 0 0 0-4.359.844 17.547 17.547 0 0 0-4.641 2.906 52.35 52.35 0 0 0-5.954 6.751Z"/></g></svg>